<svg width="138" height="28" viewBox="0 0 138 28" fill="none" xmlns="http://www.w3.org/2000/svg">
<g clip-path="url(#clip0_32_2249)">
<path d="M6.20834 1.8623H0.691895L9.25313 27.7981H14.2681L20.1068 11.2121L25.7667 27.7981H30.9248L39.3787 1.8623H33.9338L28.274 19.5947L22.3278 1.8623H17.9218L11.7964 19.5947L6.20834 1.8623Z" fill="#03050A" stroke="#03050A" stroke-width="0.054259"/>
<path d="M44.3703 7.36156C45.9286 7.36156 47.1918 6.12264 47.1918 4.59435C47.1918 3.06607 45.9286 1.82715 44.3703 1.82715C42.812 1.82715 41.5488 3.06607 41.5488 4.59435C41.5488 6.12264 42.812 7.36156 44.3703 7.36156Z" fill="#03050A"/>
<path d="M46.7577 10.7607H41.9829V27.7981H46.7577V10.7607Z" fill="#03050A" stroke="#03050A" stroke-width="0.0679798"/>
<path fill-rule="evenodd" clip-rule="evenodd" d="M68.5375 27.347H62.8372L62.8201 25.6758H62.7892C61.3731 27.4306 59.56 27.7979 57.0467 27.7979C54.7377 27.7979 52.8797 26.9862 51.4726 25.3626C50.0657 23.7271 49.3621 21.4482 49.3621 18.5259C49.3621 15.4713 50.1378 13.0241 51.6891 11.1841C53.2404 9.34414 55.2727 8.42414 57.7862 8.42414C60.1674 8.42414 61.0344 8.62883 62.7892 10.045H62.8201L62.8372 0H68.5375V27.347ZM62.2064 18.6906V17.093C62.2064 15.7097 61.8035 14.5617 60.9978 13.6487C60.1919 12.7358 59.1431 12.2793 57.851 12.2793C56.3924 12.2793 55.2532 12.8534 54.4335 14.0015C53.6138 15.1357 53.204 16.6988 53.204 18.6906C53.204 20.5579 53.6 21.9965 54.3919 23.0062C55.1838 24.0161 56.2813 24.5209 57.6844 24.5209C59.018 24.5209 60.1016 23.9883 60.9353 22.9234C61.7827 21.8582 62.2064 20.4473 62.2064 18.6906Z" fill="#03050A"/>
<path fill-rule="evenodd" clip-rule="evenodd" d="M81.2788 27.7978C79.1972 27.7978 77.3601 27.3715 75.7678 26.5188C74.1877 25.6543 72.9463 24.4714 72.0434 22.9703C71.1531 21.4572 70.708 19.7279 70.708 17.7825C70.708 15.6569 71.1468 13.8075 72.0246 12.2344C72.9024 10.6612 74.1125 9.4423 75.6548 8.57768C77.1971 7.70103 78.9715 7.2627 80.9779 7.2627C83.1095 7.2627 84.9215 7.74305 86.4137 8.70376C87.906 9.66446 89.0093 11.0155 89.724 12.7568C90.4388 14.498 90.6896 16.5456 90.4764 18.8993H88.0124H85.4168H76.2127C76.3726 20.067 76.7508 21.0155 77.3476 21.7454C78.1752 22.7302 79.3853 23.2225 80.9779 23.2225C81.9811 23.2225 82.8399 23.0123 83.5546 22.5919C84.2694 22.1718 84.8148 21.5653 85.1911 20.7727L90.3072 22.1777C89.5422 23.9551 88.3323 25.3361 86.677 26.3207C85.0344 27.3055 83.2349 27.7978 81.2788 27.7978ZM84.2182 12.8597C84.6555 13.4286 84.9489 14.2392 85.0985 15.2915H76.1458C76.3452 14.393 76.6785 13.6544 77.1461 13.0759C77.9736 12.0551 79.2589 11.5448 81.0018 11.5448C82.4941 11.5448 83.5661 11.9831 84.2182 12.8597Z" fill="#03050A"/>
<path fill-rule="evenodd" clip-rule="evenodd" d="M92.7202 27.7979H109.298V23.5949H100.441L109.226 12.1402V9.32617H93.6402V13.5292H101.992L92.7202 25.4348V27.7979Z" fill="#03050A"/>
<path fill-rule="evenodd" clip-rule="evenodd" d="M121.448 27.7979C126.96 27.7979 131.428 23.4069 131.428 17.9903C131.428 12.5736 126.96 8.18262 121.448 8.18262C115.936 8.18262 111.468 12.5736 111.468 17.9903C111.468 23.4069 115.936 27.7979 121.448 27.7979ZM121.429 23.133C124.058 23.133 126.189 20.8391 126.189 18.0094C126.189 15.1797 124.058 12.8857 121.429 12.8857C118.8 12.8857 116.668 15.1797 116.668 18.0094C116.668 20.8391 118.8 23.133 121.429 23.133Z" fill="url(#paint0_linear_32_2249)"/>
<path d="M123.651 4.53955C123.439 3.54233 124.078 2.54656 125.096 2.49852C126.375 2.43821 127.659 2.59313 128.894 2.96112C130.721 3.50549 132.382 4.4988 133.726 5.85035C135.071 7.20191 136.055 8.86868 136.59 10.6985C136.951 11.9354 137.099 13.2201 137.032 14.4982C136.979 15.5162 135.98 16.15 134.983 15.9333C133.987 15.7166 133.379 14.7268 133.354 13.7077C133.338 13.0418 133.235 12.3782 133.046 11.7338C132.685 10.4958 132.019 9.36811 131.109 8.4537C130.2 7.53929 129.076 6.86725 127.84 6.49894C127.196 6.30723 126.533 6.20098 125.867 6.18091C124.848 6.15016 123.862 5.53679 123.651 4.53955Z" fill="url(#paint1_linear_32_2249)"/>
</g>
<defs>
<linearGradient id="paint0_linear_32_2249" x1="111.468" y1="15.0461" x2="133.34" y2="19.0227" gradientUnits="userSpaceOnUse">
<stop stop-color="#FB6C02"/>
<stop offset="0.161458" stop-color="#EA7001"/>
<stop offset="0.353665" stop-color="#FF9701"/>
<stop offset="0.617491" stop-color="#FF9701"/>
<stop offset="0.765625" stop-color="#EA7001"/>
<stop offset="1" stop-color="#CF3D01"/>
</linearGradient>
<linearGradient id="paint1_linear_32_2249" x1="114.221" y1="10.4731" x2="139.262" y2="14.9475" gradientUnits="userSpaceOnUse">
<stop stop-color="#FB6C02"/>
<stop offset="0.161458" stop-color="#EA7001"/>
<stop offset="0.353665" stop-color="#FF9701"/>
<stop offset="0.617491" stop-color="#FF9701"/>
<stop offset="0.765625" stop-color="#EA7001"/>
<stop offset="1" stop-color="#CF3D01"/>
</linearGradient>
<clipPath id="clip0_32_2249">
<rect width="136.548" height="28" fill="white" transform="translate(0.5)"/>
</clipPath>
</defs>
</svg>
